<mxfile host="Electron" modified="2023-12-08T06:10:27.373Z" agent="Mozilla/5.0 (Windows NT 10.0; Win64; x64) AppleWebKit/537.36 (KHTML, like Gecko) draw.io/21.5.0 Chrome/112.0.5615.204 Electron/24.5.1 Safari/537.36" etag="BEc8iS9NpZRLTQO50Yux" version="21.5.0" type="device">
  <diagram name="Page-1" id="XON07IPh-ZJK_7BV2nB7">
    <mxGraphModel dx="1434" dy="836" grid="1" gridSize="10" guides="1" tooltips="1" connect="1" arrows="1" fold="1" page="1" pageScale="1" pageWidth="1100" pageHeight="850" math="0" shadow="0">
      <root>
        <mxCell id="0" />
        <mxCell id="1" parent="0" />
        <mxCell id="b03P6NIvwsAR6rXq3Ca0-86" value="Instance C3&lt;br&gt;/auxch1" style="rounded=0;whiteSpace=wrap;html=1;" parent="1" vertex="1">
          <mxGeometry x="650" y="560" width="200" height="120" as="geometry" />
        </mxCell>
        <mxCell id="b03P6NIvwsAR6rXq3Ca0-49" value="Instance C2&lt;br&gt;/auxch1" style="rounded=0;whiteSpace=wrap;html=1;" parent="1" vertex="1">
          <mxGeometry x="359.43" y="440" width="120" height="120" as="geometry" />
        </mxCell>
        <mxCell id="BTfkqiBdbR_koEkJdETr-1" value="Instance A1&lt;br&gt;/ws_in&lt;br&gt;Agent" style="rounded=0;whiteSpace=wrap;html=1;" parent="1" vertex="1">
          <mxGeometry x="119.43" y="240" width="120" height="120" as="geometry" />
        </mxCell>
        <mxCell id="BTfkqiBdbR_koEkJdETr-2" value="Instance A2&lt;br&gt;/ws_in&lt;br&gt;Agent" style="rounded=0;whiteSpace=wrap;html=1;" parent="1" vertex="1">
          <mxGeometry x="359.43" y="240" width="120" height="120" as="geometry" />
        </mxCell>
        <mxCell id="BTfkqiBdbR_koEkJdETr-10" value="BroadcastChannel 0" style="text;html=1;align=center;verticalAlign=middle;resizable=0;points=[];autosize=1;strokeColor=none;fillColor=none;" parent="1" vertex="1">
          <mxGeometry x="244.43" y="125" width="130" height="30" as="geometry" />
        </mxCell>
        <mxCell id="BTfkqiBdbR_koEkJdETr-11" value="Instance A0&lt;br&gt;/ws_out&lt;br&gt;Forwarder" style="rounded=0;whiteSpace=wrap;html=1;" parent="1" vertex="1">
          <mxGeometry x="639.8599999999999" y="80" width="200" height="120" as="geometry" />
        </mxCell>
        <mxCell id="BTfkqiBdbR_koEkJdETr-16" value="" style="endArrow=none;html=1;rounded=0;" parent="1" edge="1">
          <mxGeometry width="50" height="50" relative="1" as="geometry">
            <mxPoint x="669.8599999999999" y="100" as="sourcePoint" />
            <mxPoint x="649.8599999999999" y="120" as="targetPoint" />
          </mxGeometry>
        </mxCell>
        <mxCell id="BTfkqiBdbR_koEkJdETr-17" value="" style="endArrow=none;html=1;rounded=0;" parent="1" edge="1">
          <mxGeometry width="50" height="50" relative="1" as="geometry">
            <mxPoint x="669.8599999999999" y="180" as="sourcePoint" />
            <mxPoint x="649.8599999999999" y="160" as="targetPoint" />
          </mxGeometry>
        </mxCell>
        <mxCell id="BTfkqiBdbR_koEkJdETr-18" value="Outlet" style="rounded=0;whiteSpace=wrap;html=1;" parent="1" vertex="1">
          <mxGeometry x="919.8599999999999" y="80" width="120" height="120" as="geometry" />
        </mxCell>
        <mxCell id="BTfkqiBdbR_koEkJdETr-39" value="" style="endArrow=none;dashed=1;html=1;rounded=0;" parent="1" edge="1">
          <mxGeometry width="50" height="50" relative="1" as="geometry">
            <mxPoint x="90" y="40" as="sourcePoint" />
            <mxPoint x="860" y="40" as="targetPoint" />
          </mxGeometry>
        </mxCell>
        <mxCell id="BTfkqiBdbR_koEkJdETr-40" value="" style="endArrow=none;dashed=1;html=1;rounded=0;" parent="1" edge="1">
          <mxGeometry width="50" height="50" relative="1" as="geometry">
            <mxPoint x="860" y="380" as="sourcePoint" />
            <mxPoint x="860.43" y="39.129999999999995" as="targetPoint" />
          </mxGeometry>
        </mxCell>
        <mxCell id="BTfkqiBdbR_koEkJdETr-41" value="" style="endArrow=none;dashed=1;html=1;rounded=0;" parent="1" edge="1">
          <mxGeometry width="50" height="50" relative="1" as="geometry">
            <mxPoint x="90" y="380" as="sourcePoint" />
            <mxPoint x="860" y="380" as="targetPoint" />
          </mxGeometry>
        </mxCell>
        <mxCell id="BTfkqiBdbR_koEkJdETr-42" value="" style="endArrow=none;dashed=1;html=1;rounded=0;" parent="1" edge="1">
          <mxGeometry width="50" height="50" relative="1" as="geometry">
            <mxPoint x="90" y="380" as="sourcePoint" />
            <mxPoint x="90" y="39.129999999999995" as="targetPoint" />
          </mxGeometry>
        </mxCell>
        <mxCell id="BTfkqiBdbR_koEkJdETr-43" value="Serverless Project 0&lt;br&gt;Main" style="text;html=1;align=center;verticalAlign=middle;resizable=0;points=[];autosize=1;strokeColor=none;fillColor=none;" parent="1" vertex="1">
          <mxGeometry x="570" y="330" width="130" height="40" as="geometry" />
        </mxCell>
        <mxCell id="b03P6NIvwsAR6rXq3Ca0-1" value="" style="endArrow=none;dashed=1;html=1;rounded=0;strokeColor=#CC00CC;" parent="1" edge="1">
          <mxGeometry width="50" height="50" relative="1" as="geometry">
            <mxPoint x="550" y="170" as="sourcePoint" />
            <mxPoint x="570" y="110" as="targetPoint" />
          </mxGeometry>
        </mxCell>
        <mxCell id="b03P6NIvwsAR6rXq3Ca0-2" value="Speed Limit:&lt;br&gt;64kB/s" style="text;html=1;align=center;verticalAlign=middle;resizable=0;points=[];autosize=1;strokeColor=none;fillColor=none;fontColor=#FF00FF;" parent="1" vertex="1">
          <mxGeometry x="520" y="70" width="90" height="40" as="geometry" />
        </mxCell>
        <mxCell id="b03P6NIvwsAR6rXq3Ca0-5" value="" style="endArrow=none;html=1;rounded=0;" parent="1" edge="1">
          <mxGeometry width="50" height="50" relative="1" as="geometry">
            <mxPoint x="949.8599999999999" y="100" as="sourcePoint" />
            <mxPoint x="929.8599999999999" y="120" as="targetPoint" />
          </mxGeometry>
        </mxCell>
        <mxCell id="b03P6NIvwsAR6rXq3Ca0-6" value="" style="endArrow=none;html=1;rounded=0;" parent="1" edge="1">
          <mxGeometry width="50" height="50" relative="1" as="geometry">
            <mxPoint x="949.8599999999999" y="180" as="sourcePoint" />
            <mxPoint x="929.8599999999999" y="160" as="targetPoint" />
          </mxGeometry>
        </mxCell>
        <mxCell id="b03P6NIvwsAR6rXq3Ca0-7" value="" style="endArrow=none;html=1;rounded=0;" parent="1" edge="1">
          <mxGeometry width="50" height="50" relative="1" as="geometry">
            <mxPoint x="829.8599999999999" y="160" as="sourcePoint" />
            <mxPoint x="809.8599999999999" y="180" as="targetPoint" />
          </mxGeometry>
        </mxCell>
        <mxCell id="b03P6NIvwsAR6rXq3Ca0-8" value="" style="endArrow=none;html=1;rounded=0;" parent="1" edge="1">
          <mxGeometry width="50" height="50" relative="1" as="geometry">
            <mxPoint x="829.8599999999999" y="120" as="sourcePoint" />
            <mxPoint x="809.8599999999999" y="100" as="targetPoint" />
          </mxGeometry>
        </mxCell>
        <mxCell id="b03P6NIvwsAR6rXq3Ca0-11" value="" style="endArrow=none;html=1;rounded=0;" parent="1" edge="1">
          <mxGeometry width="50" height="50" relative="1" as="geometry">
            <mxPoint x="829.8599999999999" y="120" as="sourcePoint" />
            <mxPoint x="929.8599999999999" y="120" as="targetPoint" />
          </mxGeometry>
        </mxCell>
        <mxCell id="b03P6NIvwsAR6rXq3Ca0-14" value="" style="endArrow=none;html=1;rounded=0;" parent="1" edge="1">
          <mxGeometry width="50" height="50" relative="1" as="geometry">
            <mxPoint x="100" y="120" as="sourcePoint" />
            <mxPoint x="650.43" y="120" as="targetPoint" />
          </mxGeometry>
        </mxCell>
        <mxCell id="b03P6NIvwsAR6rXq3Ca0-16" value="" style="endArrow=none;html=1;rounded=0;" parent="1" edge="1">
          <mxGeometry width="50" height="50" relative="1" as="geometry">
            <mxPoint x="100" y="160" as="sourcePoint" />
            <mxPoint x="159.43" y="160" as="targetPoint" />
          </mxGeometry>
        </mxCell>
        <mxCell id="b03P6NIvwsAR6rXq3Ca0-17" value="" style="endArrow=none;html=1;rounded=0;" parent="1" edge="1">
          <mxGeometry width="50" height="50" relative="1" as="geometry">
            <mxPoint x="159.43" y="160" as="sourcePoint" />
            <mxPoint x="159.43" y="250" as="targetPoint" />
          </mxGeometry>
        </mxCell>
        <mxCell id="b03P6NIvwsAR6rXq3Ca0-18" value="" style="endArrow=none;html=1;rounded=0;" parent="1" edge="1">
          <mxGeometry width="50" height="50" relative="1" as="geometry">
            <mxPoint x="159.43" y="250" as="sourcePoint" />
            <mxPoint x="139.43" y="270" as="targetPoint" />
          </mxGeometry>
        </mxCell>
        <mxCell id="b03P6NIvwsAR6rXq3Ca0-19" value="" style="endArrow=none;html=1;rounded=0;" parent="1" edge="1">
          <mxGeometry width="50" height="50" relative="1" as="geometry">
            <mxPoint x="199.43" y="160" as="sourcePoint" />
            <mxPoint x="199.43" y="250" as="targetPoint" />
          </mxGeometry>
        </mxCell>
        <mxCell id="b03P6NIvwsAR6rXq3Ca0-20" value="" style="endArrow=none;html=1;rounded=0;" parent="1" edge="1">
          <mxGeometry width="50" height="50" relative="1" as="geometry">
            <mxPoint x="219.43" y="270" as="sourcePoint" />
            <mxPoint x="199.43" y="250" as="targetPoint" />
          </mxGeometry>
        </mxCell>
        <mxCell id="b03P6NIvwsAR6rXq3Ca0-21" value="" style="endArrow=none;html=1;rounded=0;" parent="1" edge="1">
          <mxGeometry width="50" height="50" relative="1" as="geometry">
            <mxPoint x="439.43" y="160" as="sourcePoint" />
            <mxPoint x="439.43" y="250" as="targetPoint" />
          </mxGeometry>
        </mxCell>
        <mxCell id="b03P6NIvwsAR6rXq3Ca0-22" value="" style="endArrow=none;html=1;rounded=0;" parent="1" edge="1">
          <mxGeometry width="50" height="50" relative="1" as="geometry">
            <mxPoint x="399" y="160" as="sourcePoint" />
            <mxPoint x="399.43" y="250" as="targetPoint" />
          </mxGeometry>
        </mxCell>
        <mxCell id="b03P6NIvwsAR6rXq3Ca0-23" value="" style="endArrow=none;html=1;rounded=0;" parent="1" edge="1">
          <mxGeometry width="50" height="50" relative="1" as="geometry">
            <mxPoint x="399.43" y="250" as="sourcePoint" />
            <mxPoint x="379.43" y="270" as="targetPoint" />
          </mxGeometry>
        </mxCell>
        <mxCell id="b03P6NIvwsAR6rXq3Ca0-24" value="" style="endArrow=none;html=1;rounded=0;" parent="1" edge="1">
          <mxGeometry width="50" height="50" relative="1" as="geometry">
            <mxPoint x="459.43" y="270" as="sourcePoint" />
            <mxPoint x="439.43" y="250" as="targetPoint" />
          </mxGeometry>
        </mxCell>
        <mxCell id="b03P6NIvwsAR6rXq3Ca0-25" value="" style="endArrow=none;html=1;rounded=0;" parent="1" edge="1">
          <mxGeometry width="50" height="50" relative="1" as="geometry">
            <mxPoint x="199.43" y="160" as="sourcePoint" />
            <mxPoint x="399.43" y="160" as="targetPoint" />
          </mxGeometry>
        </mxCell>
        <mxCell id="b03P6NIvwsAR6rXq3Ca0-26" value="" style="endArrow=none;html=1;rounded=0;" parent="1" edge="1">
          <mxGeometry width="50" height="50" relative="1" as="geometry">
            <mxPoint x="440" y="160" as="sourcePoint" />
            <mxPoint x="649.86" y="160" as="targetPoint" />
          </mxGeometry>
        </mxCell>
        <mxCell id="b03P6NIvwsAR6rXq3Ca0-29" value="" style="endArrow=none;html=1;rounded=0;" parent="1" edge="1">
          <mxGeometry width="50" height="50" relative="1" as="geometry">
            <mxPoint x="219.43" y="330" as="sourcePoint" />
            <mxPoint x="199.43" y="350" as="targetPoint" />
          </mxGeometry>
        </mxCell>
        <mxCell id="b03P6NIvwsAR6rXq3Ca0-30" value="" style="endArrow=none;html=1;rounded=0;" parent="1" edge="1">
          <mxGeometry width="50" height="50" relative="1" as="geometry">
            <mxPoint x="159.43" y="350" as="sourcePoint" />
            <mxPoint x="139.43" y="330" as="targetPoint" />
          </mxGeometry>
        </mxCell>
        <mxCell id="b03P6NIvwsAR6rXq3Ca0-31" value="" style="endArrow=none;html=1;rounded=0;" parent="1" edge="1">
          <mxGeometry width="50" height="50" relative="1" as="geometry">
            <mxPoint x="399.43" y="350" as="sourcePoint" />
            <mxPoint x="379.43" y="330" as="targetPoint" />
          </mxGeometry>
        </mxCell>
        <mxCell id="b03P6NIvwsAR6rXq3Ca0-32" value="" style="endArrow=none;html=1;rounded=0;" parent="1" edge="1">
          <mxGeometry width="50" height="50" relative="1" as="geometry">
            <mxPoint x="459.43" y="330" as="sourcePoint" />
            <mxPoint x="439.43" y="350" as="targetPoint" />
          </mxGeometry>
        </mxCell>
        <mxCell id="b03P6NIvwsAR6rXq3Ca0-40" value="Instance C1&lt;br&gt;/auxch1" style="rounded=0;whiteSpace=wrap;html=1;" parent="1" vertex="1">
          <mxGeometry x="119.43" y="440" width="120" height="120" as="geometry" />
        </mxCell>
        <mxCell id="b03P6NIvwsAR6rXq3Ca0-41" value="" style="endArrow=none;html=1;rounded=0;" parent="1" edge="1">
          <mxGeometry width="50" height="50" relative="1" as="geometry">
            <mxPoint x="159.01000000000002" y="350" as="sourcePoint" />
            <mxPoint x="159.43" y="450" as="targetPoint" />
          </mxGeometry>
        </mxCell>
        <mxCell id="b03P6NIvwsAR6rXq3Ca0-43" value="" style="endArrow=none;html=1;rounded=0;" parent="1" edge="1">
          <mxGeometry width="50" height="50" relative="1" as="geometry">
            <mxPoint x="399.01" y="350" as="sourcePoint" />
            <mxPoint x="399.43" y="450" as="targetPoint" />
          </mxGeometry>
        </mxCell>
        <mxCell id="b03P6NIvwsAR6rXq3Ca0-45" value="" style="endArrow=none;html=1;rounded=0;" parent="1" edge="1">
          <mxGeometry width="50" height="50" relative="1" as="geometry">
            <mxPoint x="159.43" y="450" as="sourcePoint" />
            <mxPoint x="139.43" y="470" as="targetPoint" />
          </mxGeometry>
        </mxCell>
        <mxCell id="b03P6NIvwsAR6rXq3Ca0-46" value="" style="endArrow=none;html=1;rounded=0;" parent="1" edge="1">
          <mxGeometry width="50" height="50" relative="1" as="geometry">
            <mxPoint x="219.43" y="470" as="sourcePoint" />
            <mxPoint x="199.43" y="450" as="targetPoint" />
          </mxGeometry>
        </mxCell>
        <mxCell id="b03P6NIvwsAR6rXq3Ca0-47" value="" style="endArrow=none;html=1;rounded=0;" parent="1" edge="1">
          <mxGeometry width="50" height="50" relative="1" as="geometry">
            <mxPoint x="399.43" y="450" as="sourcePoint" />
            <mxPoint x="379.43" y="470" as="targetPoint" />
          </mxGeometry>
        </mxCell>
        <mxCell id="b03P6NIvwsAR6rXq3Ca0-48" value="" style="endArrow=none;html=1;rounded=0;" parent="1" edge="1">
          <mxGeometry width="50" height="50" relative="1" as="geometry">
            <mxPoint x="459.43" y="470" as="sourcePoint" />
            <mxPoint x="439.43" y="450" as="targetPoint" />
          </mxGeometry>
        </mxCell>
        <mxCell id="b03P6NIvwsAR6rXq3Ca0-55" value="" style="endArrow=none;html=1;rounded=0;" parent="1" edge="1">
          <mxGeometry width="50" height="50" relative="1" as="geometry">
            <mxPoint x="219" y="530" as="sourcePoint" />
            <mxPoint x="199" y="550" as="targetPoint" />
          </mxGeometry>
        </mxCell>
        <mxCell id="b03P6NIvwsAR6rXq3Ca0-56" value="" style="endArrow=none;html=1;rounded=0;" parent="1" edge="1">
          <mxGeometry width="50" height="50" relative="1" as="geometry">
            <mxPoint x="159" y="550" as="sourcePoint" />
            <mxPoint x="139" y="530" as="targetPoint" />
          </mxGeometry>
        </mxCell>
        <mxCell id="b03P6NIvwsAR6rXq3Ca0-57" value="" style="endArrow=none;html=1;rounded=0;" parent="1" edge="1">
          <mxGeometry width="50" height="50" relative="1" as="geometry">
            <mxPoint x="399" y="550" as="sourcePoint" />
            <mxPoint x="379" y="530" as="targetPoint" />
          </mxGeometry>
        </mxCell>
        <mxCell id="b03P6NIvwsAR6rXq3Ca0-58" value="" style="endArrow=none;html=1;rounded=0;" parent="1" edge="1">
          <mxGeometry width="50" height="50" relative="1" as="geometry">
            <mxPoint x="459" y="530" as="sourcePoint" />
            <mxPoint x="439" y="550" as="targetPoint" />
          </mxGeometry>
        </mxCell>
        <mxCell id="b03P6NIvwsAR6rXq3Ca0-59" value="" style="endArrow=none;html=1;rounded=0;" parent="1" edge="1">
          <mxGeometry width="50" height="50" relative="1" as="geometry">
            <mxPoint x="158.58" y="550" as="sourcePoint" />
            <mxPoint x="159" y="600" as="targetPoint" />
          </mxGeometry>
        </mxCell>
        <mxCell id="b03P6NIvwsAR6rXq3Ca0-60" value="" style="endArrow=none;html=1;rounded=0;" parent="1" edge="1">
          <mxGeometry width="50" height="50" relative="1" as="geometry">
            <mxPoint x="198.58" y="550" as="sourcePoint" />
            <mxPoint x="199" y="600" as="targetPoint" />
          </mxGeometry>
        </mxCell>
        <mxCell id="b03P6NIvwsAR6rXq3Ca0-61" value="" style="endArrow=none;html=1;rounded=0;" parent="1" edge="1">
          <mxGeometry width="50" height="50" relative="1" as="geometry">
            <mxPoint x="398.58" y="550" as="sourcePoint" />
            <mxPoint x="399" y="600" as="targetPoint" />
          </mxGeometry>
        </mxCell>
        <mxCell id="b03P6NIvwsAR6rXq3Ca0-62" value="" style="endArrow=none;html=1;rounded=0;" parent="1" edge="1">
          <mxGeometry width="50" height="50" relative="1" as="geometry">
            <mxPoint x="438.58" y="550" as="sourcePoint" />
            <mxPoint x="439" y="600" as="targetPoint" />
          </mxGeometry>
        </mxCell>
        <mxCell id="b03P6NIvwsAR6rXq3Ca0-67" value="" style="endArrow=none;html=1;rounded=0;" parent="1" edge="1">
          <mxGeometry width="50" height="50" relative="1" as="geometry">
            <mxPoint x="199" y="600" as="sourcePoint" />
            <mxPoint x="399" y="600" as="targetPoint" />
          </mxGeometry>
        </mxCell>
        <mxCell id="b03P6NIvwsAR6rXq3Ca0-69" value="" style="endArrow=none;html=1;rounded=0;" parent="1" edge="1">
          <mxGeometry width="50" height="50" relative="1" as="geometry">
            <mxPoint x="100" y="600" as="sourcePoint" />
            <mxPoint x="159.43" y="600" as="targetPoint" />
          </mxGeometry>
        </mxCell>
        <mxCell id="b03P6NIvwsAR6rXq3Ca0-71" value="" style="endArrow=none;dashed=1;html=1;rounded=0;" parent="1" edge="1">
          <mxGeometry width="50" height="50" relative="1" as="geometry">
            <mxPoint x="90" y="420" as="sourcePoint" />
            <mxPoint x="870" y="420" as="targetPoint" />
          </mxGeometry>
        </mxCell>
        <mxCell id="b03P6NIvwsAR6rXq3Ca0-72" value="" style="endArrow=none;dashed=1;html=1;rounded=0;" parent="1" edge="1">
          <mxGeometry width="50" height="50" relative="1" as="geometry">
            <mxPoint x="90" y="700" as="sourcePoint" />
            <mxPoint x="90" y="420" as="targetPoint" />
          </mxGeometry>
        </mxCell>
        <mxCell id="b03P6NIvwsAR6rXq3Ca0-73" value="" style="endArrow=none;dashed=1;html=1;rounded=0;" parent="1" edge="1">
          <mxGeometry width="50" height="50" relative="1" as="geometry">
            <mxPoint x="90" y="700" as="sourcePoint" />
            <mxPoint x="870" y="700" as="targetPoint" />
          </mxGeometry>
        </mxCell>
        <mxCell id="b03P6NIvwsAR6rXq3Ca0-77" value="" style="endArrow=none;html=1;rounded=0;" parent="1" edge="1">
          <mxGeometry width="50" height="50" relative="1" as="geometry">
            <mxPoint x="719.86" y="190" as="sourcePoint" />
            <mxPoint x="699.86" y="170" as="targetPoint" />
          </mxGeometry>
        </mxCell>
        <mxCell id="b03P6NIvwsAR6rXq3Ca0-78" value="" style="endArrow=none;html=1;rounded=0;" parent="1" edge="1">
          <mxGeometry width="50" height="50" relative="1" as="geometry">
            <mxPoint x="779.86" y="170" as="sourcePoint" />
            <mxPoint x="759.86" y="190" as="targetPoint" />
          </mxGeometry>
        </mxCell>
        <mxCell id="b03P6NIvwsAR6rXq3Ca0-79" value="" style="endArrow=none;html=1;rounded=0;" parent="1" edge="1">
          <mxGeometry width="50" height="50" relative="1" as="geometry">
            <mxPoint x="720" y="570" as="sourcePoint" />
            <mxPoint x="700" y="590" as="targetPoint" />
          </mxGeometry>
        </mxCell>
        <mxCell id="b03P6NIvwsAR6rXq3Ca0-80" value="" style="endArrow=none;html=1;rounded=0;" parent="1" edge="1">
          <mxGeometry width="50" height="50" relative="1" as="geometry">
            <mxPoint x="779.43" y="590" as="sourcePoint" />
            <mxPoint x="759.43" y="570" as="targetPoint" />
          </mxGeometry>
        </mxCell>
        <mxCell id="b03P6NIvwsAR6rXq3Ca0-84" value="" style="endArrow=none;html=1;rounded=0;" parent="1" edge="1">
          <mxGeometry width="50" height="50" relative="1" as="geometry">
            <mxPoint x="679.43" y="580" as="sourcePoint" />
            <mxPoint x="659.43" y="600" as="targetPoint" />
          </mxGeometry>
        </mxCell>
        <mxCell id="b03P6NIvwsAR6rXq3Ca0-85" value="" style="endArrow=none;html=1;rounded=0;" parent="1" edge="1">
          <mxGeometry width="50" height="50" relative="1" as="geometry">
            <mxPoint x="679.43" y="660" as="sourcePoint" />
            <mxPoint x="659.43" y="640" as="targetPoint" />
          </mxGeometry>
        </mxCell>
        <mxCell id="b03P6NIvwsAR6rXq3Ca0-87" value="" style="endArrow=none;html=1;rounded=0;" parent="1" edge="1">
          <mxGeometry width="50" height="50" relative="1" as="geometry">
            <mxPoint x="440" y="600" as="sourcePoint" />
            <mxPoint x="659.4300000000001" y="600" as="targetPoint" />
          </mxGeometry>
        </mxCell>
        <mxCell id="b03P6NIvwsAR6rXq3Ca0-88" value="" style="endArrow=none;html=1;rounded=0;" parent="1" edge="1">
          <mxGeometry width="50" height="50" relative="1" as="geometry">
            <mxPoint x="100" y="640" as="sourcePoint" />
            <mxPoint x="659.4300000000001" y="640" as="targetPoint" />
          </mxGeometry>
        </mxCell>
        <mxCell id="b03P6NIvwsAR6rXq3Ca0-90" value="" style="endArrow=none;dashed=1;html=1;rounded=0;" parent="1" edge="1">
          <mxGeometry width="50" height="50" relative="1" as="geometry">
            <mxPoint x="870.43" y="700.87" as="sourcePoint" />
            <mxPoint x="870.8599999999999" y="420" as="targetPoint" />
          </mxGeometry>
        </mxCell>
        <mxCell id="mAdNO_QuiY1J_1uttcQz-3" value="" style="endArrow=classic;html=1;rounded=0;" parent="1" edge="1">
          <mxGeometry relative="1" as="geometry">
            <mxPoint x="200" y="350" as="sourcePoint" />
            <mxPoint x="200" y="450" as="targetPoint" />
          </mxGeometry>
        </mxCell>
        <mxCell id="mAdNO_QuiY1J_1uttcQz-4" value="" style="shape=message;html=1;outlineConnect=0;" parent="mAdNO_QuiY1J_1uttcQz-3" vertex="1">
          <mxGeometry width="20" height="14" relative="1" as="geometry">
            <mxPoint x="-10" y="-7" as="offset" />
          </mxGeometry>
        </mxCell>
        <mxCell id="mAdNO_QuiY1J_1uttcQz-5" value="" style="endArrow=none;dashed=1;html=1;rounded=0;fillColor=#d80073;strokeColor=#CC0066;" parent="1" edge="1">
          <mxGeometry width="50" height="50" relative="1" as="geometry">
            <mxPoint x="560" y="10" as="sourcePoint" />
            <mxPoint x="560" y="740" as="targetPoint" />
          </mxGeometry>
        </mxCell>
        <mxCell id="mAdNO_QuiY1J_1uttcQz-6" value="Speed Limit:&lt;br&gt;64kB/s" style="text;html=1;align=center;verticalAlign=middle;resizable=0;points=[];autosize=1;strokeColor=none;fillColor=none;fontColor=#FF00FF;" parent="1" vertex="1">
          <mxGeometry x="520" y="550" width="90" height="40" as="geometry" />
        </mxCell>
        <mxCell id="mAdNO_QuiY1J_1uttcQz-7" value="" style="endArrow=none;dashed=1;html=1;rounded=0;strokeColor=#CC00CC;" parent="1" edge="1">
          <mxGeometry width="50" height="50" relative="1" as="geometry">
            <mxPoint x="550" y="650" as="sourcePoint" />
            <mxPoint x="570" y="590" as="targetPoint" />
          </mxGeometry>
        </mxCell>
        <mxCell id="mAdNO_QuiY1J_1uttcQz-11" value="" style="endArrow=classic;html=1;rounded=0;" parent="1" edge="1">
          <mxGeometry relative="1" as="geometry">
            <mxPoint x="929.86" y="160" as="sourcePoint" />
            <mxPoint x="829.86" y="160" as="targetPoint" />
          </mxGeometry>
        </mxCell>
        <mxCell id="mAdNO_QuiY1J_1uttcQz-12" value="" style="shape=message;html=1;outlineConnect=0;" parent="mAdNO_QuiY1J_1uttcQz-11" vertex="1">
          <mxGeometry width="20" height="14" relative="1" as="geometry">
            <mxPoint x="-10" y="-7" as="offset" />
          </mxGeometry>
        </mxCell>
        <mxCell id="mAdNO_QuiY1J_1uttcQz-13" value="" style="endArrow=classic;html=1;rounded=0;" parent="1" edge="1">
          <mxGeometry relative="1" as="geometry">
            <mxPoint x="760" y="190" as="sourcePoint" />
            <mxPoint x="760" y="570" as="targetPoint" />
          </mxGeometry>
        </mxCell>
        <mxCell id="mAdNO_QuiY1J_1uttcQz-14" value="" style="shape=message;html=1;outlineConnect=0;" parent="mAdNO_QuiY1J_1uttcQz-13" vertex="1">
          <mxGeometry width="20" height="14" relative="1" as="geometry">
            <mxPoint x="-10" y="-7" as="offset" />
          </mxGeometry>
        </mxCell>
        <mxCell id="mAdNO_QuiY1J_1uttcQz-15" value="" style="endArrow=none;html=1;rounded=0;endFill=0;startArrow=none;startFill=0;" parent="1" edge="1">
          <mxGeometry relative="1" as="geometry">
            <mxPoint x="720" y="190" as="sourcePoint" />
            <mxPoint x="720" y="570" as="targetPoint" />
          </mxGeometry>
        </mxCell>
        <mxCell id="mAdNO_QuiY1J_1uttcQz-17" value="" style="endArrow=classic;html=1;rounded=0;" parent="1" edge="1">
          <mxGeometry relative="1" as="geometry">
            <mxPoint x="440" y="350" as="sourcePoint" />
            <mxPoint x="440" y="450" as="targetPoint" />
          </mxGeometry>
        </mxCell>
        <mxCell id="mAdNO_QuiY1J_1uttcQz-18" value="" style="shape=message;html=1;outlineConnect=0;" parent="mAdNO_QuiY1J_1uttcQz-17" vertex="1">
          <mxGeometry width="20" height="14" relative="1" as="geometry">
            <mxPoint x="-10" y="-7" as="offset" />
          </mxGeometry>
        </mxCell>
        <mxCell id="mAdNO_QuiY1J_1uttcQz-19" value="" style="endArrow=classic;html=1;rounded=0;entryX=0;entryY=1;entryDx=0;entryDy=0;" parent="1" target="BTfkqiBdbR_koEkJdETr-1" edge="1">
          <mxGeometry relative="1" as="geometry">
            <mxPoint x="100" y="400" as="sourcePoint" />
            <mxPoint x="660" y="480" as="targetPoint" />
          </mxGeometry>
        </mxCell>
        <mxCell id="mAdNO_QuiY1J_1uttcQz-20" value="" style="shape=message;html=1;outlineConnect=0;" parent="mAdNO_QuiY1J_1uttcQz-19" vertex="1">
          <mxGeometry width="20" height="14" relative="1" as="geometry">
            <mxPoint x="-10" y="-7" as="offset" />
          </mxGeometry>
        </mxCell>
        <mxCell id="mAdNO_QuiY1J_1uttcQz-21" value="" style="endArrow=classic;html=1;rounded=0;entryX=0;entryY=1;entryDx=0;entryDy=0;" parent="1" edge="1">
          <mxGeometry relative="1" as="geometry">
            <mxPoint x="340" y="400" as="sourcePoint" />
            <mxPoint x="359" y="360" as="targetPoint" />
          </mxGeometry>
        </mxCell>
        <mxCell id="mAdNO_QuiY1J_1uttcQz-22" value="" style="shape=message;html=1;outlineConnect=0;" parent="mAdNO_QuiY1J_1uttcQz-21" vertex="1">
          <mxGeometry width="20" height="14" relative="1" as="geometry">
            <mxPoint x="-10" y="-7" as="offset" />
          </mxGeometry>
        </mxCell>
        <mxCell id="mAdNO_QuiY1J_1uttcQz-23" value="WebSocket&lt;br&gt;from Client" style="text;html=1;align=center;verticalAlign=middle;resizable=0;points=[];autosize=1;strokeColor=none;fillColor=none;" parent="1" vertex="1">
          <mxGeometry x="266.43" y="376" width="80" height="40" as="geometry" />
        </mxCell>
        <mxCell id="mAdNO_QuiY1J_1uttcQz-24" value="WebSocket&lt;br&gt;from Client" style="text;html=1;align=center;verticalAlign=middle;resizable=0;points=[];autosize=1;strokeColor=none;fillColor=none;" parent="1" vertex="1">
          <mxGeometry x="26" y="376" width="80" height="40" as="geometry" />
        </mxCell>
        <mxCell id="mAdNO_QuiY1J_1uttcQz-25" value="BroadcastChannel 1" style="text;html=1;align=center;verticalAlign=middle;resizable=0;points=[];autosize=1;strokeColor=none;fillColor=none;" parent="1" vertex="1">
          <mxGeometry x="244.43" y="605" width="130" height="30" as="geometry" />
        </mxCell>
        <mxCell id="mAdNO_QuiY1J_1uttcQz-26" value="&lt;font&gt;Geo Boundary&lt;/font&gt;" style="text;html=1;align=center;verticalAlign=middle;resizable=0;points=[];autosize=1;strokeColor=none;fillColor=none;fontColor=#CC0066;" parent="1" vertex="1">
          <mxGeometry x="510" y="740" width="100" height="30" as="geometry" />
        </mxCell>
        <mxCell id="mAdNO_QuiY1J_1uttcQz-27" value="&lt;font&gt;Data Center&lt;br&gt;near client&lt;br&gt;&lt;/font&gt;" style="text;html=1;align=center;verticalAlign=middle;resizable=0;points=[];autosize=1;strokeColor=none;fillColor=none;fontColor=#CC0066;" parent="1" vertex="1">
          <mxGeometry x="400.00000000000006" y="720" width="90" height="40" as="geometry" />
        </mxCell>
        <mxCell id="mAdNO_QuiY1J_1uttcQz-28" value="&lt;font&gt;Data Center&lt;br&gt;near outlet&lt;br&gt;&lt;/font&gt;" style="text;html=1;align=center;verticalAlign=middle;resizable=0;points=[];autosize=1;strokeColor=none;fillColor=none;fontColor=#CC0066;" parent="1" vertex="1">
          <mxGeometry x="639.4300000000001" y="720" width="90" height="40" as="geometry" />
        </mxCell>
        <mxCell id="mAdNO_QuiY1J_1uttcQz-33" value="Serverless Project 1&lt;br&gt;Auxiliary Channel(s)" style="text;html=1;align=center;verticalAlign=middle;resizable=0;points=[];autosize=1;strokeColor=none;fillColor=none;" parent="1" vertex="1">
          <mxGeometry x="570" y="430" width="130" height="40" as="geometry" />
        </mxCell>
        <mxCell id="mAdNO_QuiY1J_1uttcQz-34" value="" style="endArrow=classic;html=1;rounded=0;" parent="1" edge="1">
          <mxGeometry relative="1" as="geometry">
            <mxPoint x="1020" y="610" as="sourcePoint" />
            <mxPoint x="940" y="610" as="targetPoint" />
          </mxGeometry>
        </mxCell>
        <mxCell id="mAdNO_QuiY1J_1uttcQz-35" value="" style="shape=message;html=1;outlineConnect=0;" parent="mAdNO_QuiY1J_1uttcQz-34" vertex="1">
          <mxGeometry width="20" height="14" relative="1" as="geometry">
            <mxPoint x="-10" y="-7" as="offset" />
          </mxGeometry>
        </mxCell>
        <mxCell id="mAdNO_QuiY1J_1uttcQz-36" value="" style="endArrow=none;html=1;rounded=0;" parent="1" edge="1">
          <mxGeometry width="50" height="50" relative="1" as="geometry">
            <mxPoint x="939.9999999999999" y="590" as="sourcePoint" />
            <mxPoint x="1020" y="590" as="targetPoint" />
          </mxGeometry>
        </mxCell>
        <mxCell id="mAdNO_QuiY1J_1uttcQz-38" value="" style="endArrow=none;html=1;rounded=0;" parent="1" edge="1">
          <mxGeometry width="50" height="50" relative="1" as="geometry">
            <mxPoint x="940" y="590" as="sourcePoint" />
            <mxPoint x="920" y="570" as="targetPoint" />
          </mxGeometry>
        </mxCell>
        <mxCell id="mAdNO_QuiY1J_1uttcQz-39" value="" style="endArrow=none;html=1;rounded=0;" parent="1" edge="1">
          <mxGeometry width="50" height="50" relative="1" as="geometry">
            <mxPoint x="1039.86" y="630" as="sourcePoint" />
            <mxPoint x="1019.8599999999999" y="610" as="targetPoint" />
          </mxGeometry>
        </mxCell>
        <mxCell id="mAdNO_QuiY1J_1uttcQz-40" value="" style="endArrow=none;html=1;rounded=0;" parent="1" edge="1">
          <mxGeometry width="50" height="50" relative="1" as="geometry">
            <mxPoint x="920" y="630" as="sourcePoint" />
            <mxPoint x="940" y="610" as="targetPoint" />
          </mxGeometry>
        </mxCell>
        <mxCell id="mAdNO_QuiY1J_1uttcQz-41" value="" style="endArrow=none;html=1;rounded=0;" parent="1" edge="1">
          <mxGeometry width="50" height="50" relative="1" as="geometry">
            <mxPoint x="1019.8599999999999" y="590" as="sourcePoint" />
            <mxPoint x="1039.86" y="570" as="targetPoint" />
          </mxGeometry>
        </mxCell>
        <mxCell id="mAdNO_QuiY1J_1uttcQz-42" value="A WebSocket Channel&lt;br&gt;the arrow indicates the initiator" style="text;html=1;align=center;verticalAlign=middle;resizable=0;points=[];autosize=1;strokeColor=none;fillColor=none;" parent="1" vertex="1">
          <mxGeometry x="890" y="630" width="190" height="40" as="geometry" />
        </mxCell>
        <mxCell id="mAdNO_QuiY1J_1uttcQz-53" value="" style="endArrow=none;html=1;rounded=0;" parent="1" edge="1">
          <mxGeometry width="50" height="50" relative="1" as="geometry">
            <mxPoint x="939.9999999999999" y="750" as="sourcePoint" />
            <mxPoint x="1020" y="750" as="targetPoint" />
          </mxGeometry>
        </mxCell>
        <mxCell id="mAdNO_QuiY1J_1uttcQz-54" value="" style="endArrow=none;html=1;rounded=0;" parent="1" edge="1">
          <mxGeometry width="50" height="50" relative="1" as="geometry">
            <mxPoint x="940" y="750" as="sourcePoint" />
            <mxPoint x="920" y="730" as="targetPoint" />
          </mxGeometry>
        </mxCell>
        <mxCell id="mAdNO_QuiY1J_1uttcQz-55" value="" style="endArrow=none;html=1;rounded=0;" parent="1" edge="1">
          <mxGeometry width="50" height="50" relative="1" as="geometry">
            <mxPoint x="1039.86" y="790" as="sourcePoint" />
            <mxPoint x="1019.8599999999999" y="770" as="targetPoint" />
          </mxGeometry>
        </mxCell>
        <mxCell id="mAdNO_QuiY1J_1uttcQz-56" value="" style="endArrow=none;html=1;rounded=0;" parent="1" edge="1">
          <mxGeometry width="50" height="50" relative="1" as="geometry">
            <mxPoint x="920" y="790" as="sourcePoint" />
            <mxPoint x="940" y="770" as="targetPoint" />
          </mxGeometry>
        </mxCell>
        <mxCell id="mAdNO_QuiY1J_1uttcQz-57" value="" style="endArrow=none;html=1;rounded=0;" parent="1" edge="1">
          <mxGeometry width="50" height="50" relative="1" as="geometry">
            <mxPoint x="1019.8599999999999" y="750" as="sourcePoint" />
            <mxPoint x="1039.86" y="730" as="targetPoint" />
          </mxGeometry>
        </mxCell>
        <mxCell id="mAdNO_QuiY1J_1uttcQz-58" value="" style="endArrow=none;html=1;rounded=0;" parent="1" edge="1">
          <mxGeometry width="50" height="50" relative="1" as="geometry">
            <mxPoint x="939.8599999999999" y="770" as="sourcePoint" />
            <mxPoint x="1019.8599999999999" y="770" as="targetPoint" />
          </mxGeometry>
        </mxCell>
        <mxCell id="mAdNO_QuiY1J_1uttcQz-59" value="BroadcastChannel on Deno Deploy" style="text;html=1;align=center;verticalAlign=middle;resizable=0;points=[];autosize=1;strokeColor=none;fillColor=none;" parent="1" vertex="1">
          <mxGeometry x="890" y="790" width="210" height="30" as="geometry" />
        </mxCell>
        <mxCell id="mAdNO_QuiY1J_1uttcQz-60" value="" style="endArrow=classic;html=1;rounded=0;" parent="1" edge="1">
          <mxGeometry relative="1" as="geometry">
            <mxPoint x="1039.86" y="490" as="sourcePoint" />
            <mxPoint x="919.86" y="490" as="targetPoint" />
          </mxGeometry>
        </mxCell>
        <mxCell id="mAdNO_QuiY1J_1uttcQz-61" value="" style="shape=message;html=1;outlineConnect=0;" parent="mAdNO_QuiY1J_1uttcQz-60" vertex="1">
          <mxGeometry width="20" height="14" relative="1" as="geometry">
            <mxPoint x="-10" y="-7" as="offset" />
          </mxGeometry>
        </mxCell>
        <mxCell id="mAdNO_QuiY1J_1uttcQz-62" value="A WebSocket initiated by the client" style="text;html=1;align=center;verticalAlign=middle;resizable=0;points=[];autosize=1;strokeColor=none;fillColor=none;" parent="1" vertex="1">
          <mxGeometry x="880" y="500" width="210" height="30" as="geometry" />
        </mxCell>
        <mxCell id="mAdNO_QuiY1J_1uttcQz-63" value="Legend:" style="text;html=1;align=center;verticalAlign=middle;resizable=0;points=[];autosize=1;strokeColor=none;fillColor=none;" parent="1" vertex="1">
          <mxGeometry x="950" y="440" width="70" height="30" as="geometry" />
        </mxCell>
        <mxCell id="mAdNO_QuiY1J_1uttcQz-64" value="" style="endArrow=none;html=1;rounded=0;" parent="1" edge="1">
          <mxGeometry width="50" height="50" relative="1" as="geometry">
            <mxPoint x="890" y="440" as="sourcePoint" />
            <mxPoint x="1090" y="440" as="targetPoint" />
          </mxGeometry>
        </mxCell>
        <mxCell id="mAdNO_QuiY1J_1uttcQz-65" value="" style="endArrow=none;html=1;rounded=0;" parent="1" edge="1">
          <mxGeometry width="50" height="50" relative="1" as="geometry">
            <mxPoint x="890" y="440" as="sourcePoint" />
            <mxPoint x="890" y="840" as="targetPoint" />
          </mxGeometry>
        </mxCell>
        <mxCell id="7s5Ff1nxcWGz0w_Vvy24-1" value="" style="endArrow=none;dashed=1;html=1;rounded=0;strokeColor=#FF0000;" edge="1" parent="1">
          <mxGeometry width="50" height="50" relative="1" as="geometry">
            <mxPoint x="180" y="260" as="sourcePoint" />
            <mxPoint x="180" y="150" as="targetPoint" />
          </mxGeometry>
        </mxCell>
        <mxCell id="7s5Ff1nxcWGz0w_Vvy24-2" value="" style="endArrow=none;dashed=1;html=1;rounded=0;strokeColor=#FF0000;" edge="1" parent="1">
          <mxGeometry width="50" height="50" relative="1" as="geometry">
            <mxPoint x="180" y="150" as="sourcePoint" />
            <mxPoint x="679.43" y="150" as="targetPoint" />
          </mxGeometry>
        </mxCell>
        <mxCell id="7s5Ff1nxcWGz0w_Vvy24-3" value="KCP" style="text;html=1;align=center;verticalAlign=middle;resizable=0;points=[];autosize=1;strokeColor=none;fillColor=none;fontColor=#FF0000;" vertex="1" parent="1">
          <mxGeometry x="180" y="120" width="50" height="30" as="geometry" />
        </mxCell>
      </root>
    </mxGraphModel>
  </diagram>
</mxfile>
